<svg xmlns="http://www.w3.org/2000/svg" xmlns:xlink="http://www.w3.org/1999/xlink"><symbol id="icon-fb" viewBox="0 0 14 27">
<path d="M13.4728 0.0056178L10.1148 0C6.34228 0 3.90429 2.60806 3.90429 6.64474V9.7084H0.528007C0.236257 9.7084 0 9.95503 0 10.2592V14.6981C0 15.0023 0.236526 15.2487 0.528007 15.2487H3.90429V26.4495C3.90429 26.7537 4.14055 27 4.4323 27H8.83738C9.12914 27 9.36539 26.7534 9.36539 26.4495V15.2487H13.3131C13.6048 15.2487 13.8411 15.0023 13.8411 14.6981L13.8427 10.2592C13.8427 10.1132 13.7869 9.97328 13.688 9.86992C13.5892 9.76655 13.4545 9.7084 13.3144 9.7084H9.36539V7.11129C9.36539 5.86302 9.65068 5.22933 11.2102 5.22933L13.4723 5.22849C13.7637 5.22849 14 4.98187 14 4.67794V0.556162C14 0.25252 13.764 0.00617958 13.4728 0.0056178Z" fill="white"/>
</symbol><symbol id="icon-insta" viewBox="0 0 24 24">
<path d="M17.5034 0H6.49658C2.91431 0 0 2.91431 0 6.49658V17.5036C0 21.0857 2.91431 24 6.49658 24H17.5036C21.0857 24 24 21.0857 24 17.5036V6.49658C24 2.91431 21.0857 0 17.5034 0V0ZM12 18.5623C8.38147 18.5623 5.43768 15.6185 5.43768 12C5.43768 8.38147 8.38147 5.43768 12 5.43768C15.6185 5.43768 18.5623 8.38147 18.5623 12C18.5623 15.6185 15.6185 18.5623 12 18.5623ZM18.7192 6.98529C17.6499 6.98529 16.7802 6.11554 16.7802 5.0462C16.7802 3.97687 17.6499 3.10693 18.7192 3.10693C19.7886 3.10693 20.6585 3.97687 20.6585 5.0462C20.6585 6.11554 19.7886 6.98529 18.7192 6.98529Z" fill="white"/>
<path d="M12.0001 6.84448C9.15753 6.84448 6.84473 9.1571 6.84473 11.9998C6.84473 14.8423 9.15753 17.1552 12.0001 17.1552C14.8428 17.1552 17.1554 14.8423 17.1554 11.9998C17.1554 9.1571 14.8428 6.84448 12.0001 6.84448Z" fill="white"/>
<path d="M18.7186 4.51392C18.4253 4.51392 18.1865 4.75269 18.1865 5.04602C18.1865 5.33936 18.4253 5.57812 18.7186 5.57812C19.0121 5.57812 19.2509 5.33954 19.2509 5.04602C19.2509 4.7525 19.0121 4.51392 18.7186 4.51392Z" fill="white"/>
</symbol><symbol id="icon-vk" viewBox="0 0 24 13">
<path fill-rule="evenodd" clip-rule="evenodd" d="M20.6554 8.26599C21.4515 9.00996 22.2918 9.70992 23.0058 10.5289C23.3212 10.8929 23.6199 11.2684 23.8483 11.6908C24.172 12.2912 23.8788 12.9519 23.3163 12.9878L19.82 12.9863C18.9182 13.0579 18.1988 12.7104 17.5939 12.1203C17.1098 11.6483 16.6615 11.146 16.1961 10.6581C16.0052 10.4587 15.8055 10.2711 15.5669 10.1228C15.0896 9.82623 14.6753 9.91703 14.4025 10.3935C14.1247 10.8781 14.0617 11.4148 14.0344 11.9549C13.997 12.7429 13.7481 12.9501 12.9211 12.9862C11.1537 13.066 9.47629 12.81 7.91806 11.9566C6.54426 11.2043 5.47894 10.1422 4.5517 8.93977C2.74634 6.59842 1.36379 4.02567 0.121208 1.38084C-0.158487 0.784951 0.0460603 0.465084 0.732957 0.453762C1.87358 0.432554 3.01405 0.434063 4.15601 0.452253C4.61959 0.458744 4.92649 0.713249 5.10549 1.13244C5.7226 2.58483 6.47771 3.96665 7.42553 5.24748C7.67794 5.58848 7.93532 5.92948 8.30184 6.16949C8.7073 6.43524 9.01602 6.34716 9.20677 5.91484C9.32781 5.64071 9.3808 5.34544 9.40808 5.05184C9.49845 4.04175 9.51035 3.03338 9.35186 2.02684C9.25455 1.39865 8.88488 0.991982 8.23 0.873108C7.89582 0.8125 7.94558 0.693475 8.10738 0.510898C8.38842 0.196012 8.65274 0 9.17964 0H13.1311C13.7532 0.117516 13.8913 0.385004 13.9765 0.984133L13.9799 5.18536C13.9731 5.4173 14.1009 6.10556 14.5374 6.25908C14.8867 6.36837 15.117 6.10088 15.3265 5.88887C16.2726 4.92776 16.9479 3.79192 17.5511 2.61578C17.8188 2.09861 18.049 1.56153 18.2721 1.02489C18.4373 0.626678 18.6967 0.430742 19.1653 0.439422L22.9684 0.442667C23.0811 0.442667 23.1952 0.444252 23.3044 0.46214C23.9453 0.566675 24.1209 0.830539 23.923 1.42952C23.6111 2.36927 23.0043 3.15241 22.411 3.93917C21.7768 4.77915 21.0985 5.59036 20.4696 6.43532C19.8917 7.20691 19.9376 7.59584 20.6554 8.26599Z" fill="white"/>
</symbol></svg>